<?xml version="1.0" encoding="UTF-8"?>
<svg id="Layer_1" xmlns="http://www.w3.org/2000/svg" version="1.1" viewBox="0 0 777.17 777">
  <!-- Generator: Adobe Illustrator 30.1.0, SVG Export Plug-In . SVG Version: 2.1.1 Build 136)  -->
  <defs>
    <style>
      .st0 {
        fill: #1d9ff9;
      }

      .st1 {
        fill: #2a2154;
      }

      .st2 {
        fill: #fcfcfd;
      }

      .st3 {
        fill: #49b1fa;
      }

      .st4 {
        fill: #1d9ef9;
      }

      .st5 {
        fill: #f6a24f;
      }
    </style>
  </defs>
  <path class="st4" d="M15.28,724.15,677.71,433.45c12.62,31.41,43,46.14,70.98,33.31,12.88-5.91,24.16-18.8,27.35-34.96,2.29-11.6,1.02-23.29-3.04-34.8-10.49-29.73-27.65-56.53-50.09-78.6-17.2-16.92-37.41-28.35-60.9-33.93,23.66-15.8,38.16-39.66,38.2-67.52l.09-56.1c.06-42.54-33.92-82.52-77.06-82.77l-91.25-.53c-26.6-.15-50.93,11.18-67.17,32.11-11.19,14.43-17.83,31.62-18.04,49.93l-.58,49.9c-13.75-17.63-35.76-25.16-56.37-17.69-26.34,9.54-39.23,38.13-30.85,64.65,4.21,13.33,11.52,24.06,20.3,35.63-24.52,1.44-34.65-2.38-57.63,8.14-6.1-5.06-12.57-8.87-19.04-13.07,22.51-15.18,39.44-38.41,40.59-65.69.92-21.92.88-42.4.04-64.52-1.55-40.79-33.73-78.58-75.08-78.77l-96.57-.45c-23.18-.11-44.55,10.82-59.73,27.9-14.19,15.96-21.33,36.07-21.45,57.36l-.27,47.28c-10.29-13.6-25.66-22.13-42.89-21.08-30.34,1.85-51.2,28.9-46.59,58.73,1.76,11.39,6.17,21.41,12.35,31.48,19.12,31.17,45.49,56.62,76.23,76.22-2.13,65.27,40.34,117.51,102.31,131.96,17.09,34.46,47.62,63.16,79.85,83.38-1.77,38.78,13.5,76.09,41.24,102.35,45.27,42.87,114.87,46.16,163.84,7.57,11.33-8.93,20.56-19.56,29.18-32,3.88,7.74,7.28,15.08,13.32,21.38,13.09,13.65,32.45,20.13,50.81,14.28,25.88-8.25,39.53-35.02,33.12-61.44-6.55-26.97-19.8-51.08-36.87-72.88-20.74-26.5-45.39-45.25-79.14-50.33,9.46-7.35,16.95-14.04,23.37-23.41,60.16,28.95,128.72,11.58,167.49-43.01Z"/>
  <path class="st0" d="M10.36,726.37"/>
  <path class="st3" d="M15.28,724.15"/>
  <path class="st3" d="M10.36,726.37"/>
  <path class="st2" d="M245.87,407.89c-20.06-5.83-40.62,1.61-52.69,18.02-8.79,11.95-11.37,26.2-9.02,41.19-51.44-17.22-85.27-68.16-75.4-122.26,4.71-25.81,26.58-46.97,53.48-46.96l105.86.02c13.5,0,25.55,4.88,36.46,13.15-21.31,17.15-32.42,42.04-32.59,68.92l-.27,44.65c-7.83-7.94-15.39-13.7-25.83-16.74Z"/>
  <path class="st2" d="M274.02,551.65c-25.69-16.71-46.79-38.49-62.53-63.92-5-8.99-9.42-17.45-10.42-27.53-1.63-16.34,7.66-30.95,22.73-35.19,15.64-4.4,31.33,3.2,38.55,18.49,7.47,24.76,19.34,47.12,36.44,67.41-12.07,11.12-19.69,23.99-24.77,40.75Z"/>
  <path class="st2" d="M266.79,279.57l-93.6.58c-18.12.11-34.84-6.95-47.04-20.11-11.04-11.9-17.97-27.55-17.94-43.96l.12-56.34c.07-31.99,25.64-62.49,58.94-63.83,33.91-1.37,66.87-1.56,100.8-.06s57.87,31.66,57.92,62.87l.1,56.5c.06,32.47-25.42,64.15-59.31,64.36ZM267.64,260.31c22.51-.97,39.04-23.15,39.46-44.01.42-20.46.7-38.23-.26-58.42-1.06-22.17-19.11-42.65-41.82-43.3-32.42-.93-63.38-.87-95.79-.05-22.89.58-40.89,21.05-41.95,43.38-.97,20.45-.52,38.67-.09,59.36.45,21.64,18.53,42.78,40.87,43.34,33.6.84,65.45,1.17,99.59-.3Z"/>
  <path class="st2" d="M115.42,297.63c-12,10.67-18.43,23.88-23.01,39.16-28.22-18.19-67.15-57.94-73.9-90.12-3.36-16.01,4.8-32.32,20.4-37.93,16.81-6.04,35.27,3.2,40.96,20.57,10.42,31.84,15.49,39.78,35.56,68.31Z"/>
  <path class="st1" d="M267.64,260.31c-34.14,1.46-65.99,1.13-99.59.3-22.34-.56-40.42-21.7-40.87-43.34-.43-20.69-.88-38.91.09-59.36,1.06-22.33,19.06-42.8,41.95-43.38,32.41-.82,63.38-.88,95.79.05,22.72.65,40.76,21.13,41.82,43.3.96,20.19.68,37.95.26,58.42-.43,20.86-16.95,43.05-39.46,44.01ZM194.94,181.02c0-12.6-10.21-22.81-22.81-22.81s-22.81,10.21-22.81,22.81,10.21,22.81,22.81,22.81,22.81-10.21,22.81-22.81ZM284.4,180.97c0-12.62-10.23-22.85-22.85-22.85s-22.85,10.23-22.85,22.85,10.23,22.85,22.85,22.85,22.85-10.23,22.85-22.85ZM232.72,218.08c-2.2,7.99-9.58,12.82-17.05,12.54-7.07-.26-14.13-4.92-15.82-12.37-.63-2.77-1.68-4.29-4.22-4.16-2.37.12-3.83,2.02-3.29,4.93,2.22,11.9,12.66,19.64,24.23,19.39,11.23-.24,21.75-7.68,23.6-19.25.49-3.06-.92-5.04-3.44-5.05-2.15,0-3.2,1-4.02,3.97Z"/>
  <path class="st5" d="M284.4,180.97c0,12.62-10.23,22.85-22.85,22.85s-22.85-10.23-22.85-22.85,10.23-22.85,22.85-22.85,22.85,10.23,22.85,22.85ZM276.74,180.95c0-8.37-6.79-15.16-15.16-15.16s-15.16,6.79-15.16,15.16,6.79,15.16,15.16,15.16,15.16-6.79,15.16-15.16Z"/>
  <path class="st5" d="M194.94,181.02c0,12.6-10.21,22.81-22.81,22.81s-22.81-10.21-22.81-22.81,10.21-22.81,22.81-22.81,22.81,10.21,22.81,22.81ZM187.41,181.01c0-8.41-6.81-15.22-15.22-15.22s-15.22,6.81-15.22,15.22,6.81,15.22,15.22,15.22,15.22-6.81,15.22-15.22Z"/>
  <path class="st5" d="M232.72,218.08c.82-2.97,1.87-3.98,4.02-3.97,2.52,0,3.93,1.99,3.44,5.05-1.85,11.57-12.37,19.01-23.6,19.25-11.58.25-22.01-7.49-24.23-19.39-.54-2.9.92-4.81,3.29-4.93,2.54-.13,3.59,1.4,4.22,4.16,1.69,7.45,8.75,12.11,15.82,12.37,7.47.27,14.85-4.55,17.05-12.54Z"/>
  <circle class="st1" cx="261.59" cy="180.95" r="15.16"/>
  <circle class="st1" cx="172.19" cy="181.01" r="15.22"/>
  <path class="st1" d="M677.71,433.45c-38.77,54.6-107.32,71.96-167.49,43.01-6.41,9.37-13.91,16.06-23.37,23.41,33.75,5.08,58.4,23.84,79.14,50.33,17.06,21.8,30.32,45.91,36.87,72.88,6.42,26.42-7.23,53.19-33.12,61.44-18.36,5.85-37.72-.63-50.81-14.28-6.04-6.3-9.45-13.64-13.32-21.38-8.61,12.43-17.85,23.07-29.18,32-48.97,38.58-118.57,35.29-163.84-7.57-27.73-26.26-43.01-63.58-41.24-102.35-32.23-20.22-62.76-48.92-79.85-83.38-61.96-14.45-104.43-66.68-102.31-131.96-30.73-19.6-57.11-45.05-76.23-76.22-6.18-10.07-10.58-20.09-12.35-31.48-4.61-29.82,16.25-56.87,46.59-58.73,17.23-1.05,32.6,7.48,42.89,21.08l.27-47.28c.12-21.29,7.26-41.4,21.45-57.36,15.18-17.08,36.55-28,59.73-27.9l96.57.45c41.35.19,73.53,37.98,75.08,78.77.84,22.12.88,42.59-.04,64.52-1.15,27.28-18.08,50.51-40.59,65.69,6.47,4.2,12.94,8.01,19.04,13.07,22.99-10.52,33.11-6.7,57.63-8.14-8.78-11.57-16.09-22.3-20.3-35.63-8.38-26.52,4.51-55.11,30.85-64.65,20.61-7.46,42.62.07,56.37,17.69l.58-49.9c.21-18.31,6.85-35.5,18.04-49.93,16.23-20.93,40.56-32.26,67.17-32.11l91.25.53c43.15.25,77.13,40.23,77.06,82.77l-.09,56.1c-.04,27.87-14.54,51.72-38.2,67.52,23.49,5.59,43.7,17.01,60.9,33.93,22.44,22.07,39.6,48.88,50.09,78.6,4.06,11.51,5.33,23.2,3.04,34.8-3.19,16.17-14.47,29.06-27.35,34.96-27.98,12.83-58.36-1.9-70.98-33.31ZM266.79,279.57c33.88-.21,59.36-31.89,59.31-64.36l-.1-56.5c-.05-31.21-25.38-61.43-57.92-62.87s-66.89-1.3-100.8.06c-33.31,1.34-58.87,31.84-58.94,63.83l-.12,56.34c-.04,16.41,6.9,32.05,17.94,43.96,12.2,13.15,28.92,20.22,47.04,20.11l93.6-.58ZM619.7,279.72c37.5-.78,63.44-33.86,63.17-69.56l-.39-52.47c-.24-32.18-26.92-61.1-60.31-62.07-33.3-.96-65.52-1.2-98.76.27s-58.55,30.04-58.73,61.02l-.32,54.29c-.2,34.16,24.3,66.74,59.88,68.32,31.9,1.41,62.75.87,95.47.19ZM115.42,297.63c-20.07-28.53-25.14-36.47-35.56-68.31-5.69-17.38-24.15-26.61-40.96-20.57-15.6,5.61-23.75,21.92-20.4,37.93,6.75,32.18,45.68,71.93,73.9,90.12,4.59-15.28,11.01-28.49,23.01-39.16ZM473.34,298.88l-17.83-26.22c-8.5-13.69-14.95-27.6-18.68-43.24-6.02-17.35-24.62-27.12-41.93-20.52-17.72,6.75-24.72,26.13-18.11,43.59,5.72,15.12,14.93,27.79,25.8,40.13l45.63.14c8.91.44,16.63,3.38,25.14,6.12ZM245.87,407.89c10.45,3.04,18.01,8.79,25.83,16.74l.27-44.65c.16-26.88,11.28-51.77,32.59-68.92-10.91-8.27-22.96-13.15-36.46-13.15l-105.86-.02c-26.9,0-48.77,21.15-53.48,46.96-9.88,54.11,23.96,105.05,75.4,122.26-2.35-14.99.23-29.25,9.02-41.19,12.07-16.4,32.63-23.85,52.69-18.02ZM652.24,436.57c17.7-18.85,27.06-42.1,29.07-67.49,1.27-15.97-1.1-31.09-9.46-44.65-10.38-16.85-27.73-26.6-47.77-26.6h-102.83c-11.53,0-21.95,3.29-31.6,10.23,23.86,17.67,36.22,43.93,36.13,72.92l-.16,49.94c-.03,10.14-2.79,19.52-6.89,29.44,44.68,22.85,98.97,13.01,133.52-23.78ZM508.38,427.89l-.09-51.03c-.06-34.55-27.91-66.39-63.12-66.57l-88.95-.45c-36.42-.18-65.16,30.32-66.25,66.14-.58,19.12-.67,36.83-.02,56.19,1.09,32.46,27.02,61.27,60.21,62.19,32.45.89,63.6,1.11,96.01-.04,34.8-1.23,62.28-32.1,62.21-66.41ZM712.53,449.28c16.16,9.24,35.43,3.05,43.56-13.31,4.41-8.88,4.73-18.89,1.62-28.77-9.02-28.56-25.23-54.09-46.14-75.4-8.15-6.72-14.56-14.1-25.37-18.54,17.29,31.54,16.1,64.24,3.6,96.85,2.98,14.67,8.59,31.09,22.73,39.17ZM274.02,551.65c5.08-16.75,12.7-29.63,24.77-40.75-17.11-20.29-28.97-42.65-36.44-67.41-7.22-15.29-22.91-22.88-38.55-18.49-15.07,4.23-24.35,18.84-22.73,35.19,1,10.08,5.42,18.54,10.42,27.53,15.74,25.43,36.84,47.21,62.53,63.92ZM490.11,640.26c12.84-19.81,19.23-41.88,19-65.24-.35-34.79-22.93-62.71-58.95-62.69l-104.53.05c-30.41.02-52.07,22.74-55.78,51.4-5.56,42.96,14.03,84.54,50.06,108.31,49.87,32.91,117.42,18.73,150.2-31.84ZM552.61,668.22c16.24,1.75,29.7-8.65,33.01-23.82,1.58-7.23,1.27-14.5-.94-21.9-9.22-30.94-26.37-58.9-50.12-80.69-6.31-5.79-12.39-10.74-20.93-14.13,17.65,30.98,15.24,65.45,3.97,97.33,2.94,19.34,12.42,40.79,35.01,43.22Z"/>
  <path class="st2" d="M490.11,640.26c-32.78,50.57-100.33,64.75-150.2,31.84-36.03-23.78-55.62-65.35-50.06-108.31,3.71-28.66,25.37-51.39,55.78-51.4l104.53-.05c36.02-.02,58.6,27.9,58.95,62.69.24,23.36-6.15,45.43-19,65.24Z"/>
  <path class="st2" d="M508.38,427.89c.06,34.31-27.41,65.18-62.21,66.41-32.41,1.15-63.56.93-96.01.04-33.19-.91-59.12-29.73-60.21-62.19-.65-19.36-.56-37.07.02-56.19,1.09-35.82,29.83-66.32,66.25-66.14l88.95.45c35.21.18,63.06,32.02,63.12,66.57l.09,51.03ZM489.12,428.62l-.11-51.8c-.05-24.47-19.63-47.52-44.78-47.62l-90.06-.33c-8.39-.03-16.2,2.83-22.98,7.23-14.84,9.63-22.83,26.27-22.68,43.92l.46,54.4c.17,20.38,19.18,40.3,40.02,40.49l88.99.81c27.01.25,51.2-18.94,51.14-47.12Z"/>
  <path class="st2" d="M552.61,668.22c-22.58-2.43-32.07-23.88-35.01-43.22,11.27-31.88,13.68-66.35-3.97-97.33,8.54,3.4,14.61,8.34,20.93,14.13,23.75,21.79,40.91,49.75,50.12,80.69,2.21,7.4,2.52,14.68.94,21.9-3.31,15.17-16.77,25.56-33.01,23.82Z"/>
  <path class="st1" d="M489.12,428.62c.06,28.18-24.13,47.36-51.14,47.12l-88.99-.81c-20.84-.19-39.85-20.11-40.02-40.49l-.46-54.4c-.15-17.65,7.84-34.29,22.68-43.92,6.78-4.4,14.59-7.27,22.98-7.23l90.06.33c25.15.09,44.73,23.14,44.78,47.62l.11,51.8ZM376.88,396.17c0-12.58-10.2-22.78-22.78-22.78s-22.78,10.2-22.78,22.78,10.2,22.78,22.78,22.78,22.78-10.2,22.78-22.78ZM466.06,395.88c0-12.55-10.17-22.73-22.73-22.73s-22.73,10.17-22.73,22.73,10.17,22.73,22.73,22.73,22.73-10.17,22.73-22.73ZM423.17,431.79c.02-2.41-4.14-2.35-5.27-1.85-2.79,1.24-3.55,17.39-20.17,16.19-7.15-.52-13.87-5.54-15.58-13.24-.59-2.66-2.74-3.83-4.96-3.13-1.93.61-2.82,2.56-2.39,4.87,2.13,11.45,11.67,18.66,23.41,19.12,12.73.49,24.84-8.34,24.97-21.95Z"/>
  <path class="st5" d="M376.88,396.17c0,12.58-10.2,22.78-22.78,22.78s-22.78-10.2-22.78-22.78,10.2-22.78,22.78-22.78,22.78,10.2,22.78,22.78ZM369.22,396.1c0-8.37-6.78-15.15-15.15-15.15s-15.15,6.78-15.15,15.15,6.78,15.15,15.15,15.15,15.15-6.78,15.15-15.15Z"/>
  <path class="st5" d="M466.06,395.88c0,12.55-10.17,22.73-22.73,22.73s-22.73-10.17-22.73-22.73,10.17-22.73,22.73-22.73,22.73,10.17,22.73,22.73ZM458.37,395.91c0-8.38-6.79-15.16-15.16-15.16s-15.16,6.79-15.16,15.16,6.79,15.16,15.16,15.16,15.16-6.79,15.16-15.16Z"/>
  <path class="st5" d="M423.17,431.79c-.13,13.62-12.23,22.45-24.97,21.95-11.74-.46-21.28-7.66-23.41-19.12-.43-2.31.46-4.25,2.39-4.87,2.22-.71,4.37.47,4.96,3.13,1.71,7.7,8.43,12.73,15.58,13.24,16.62,1.2,17.38-14.95,20.17-16.19,1.13-.5,5.3-.56,5.27,1.85Z"/>
  <circle class="st1" cx="354.07" cy="396.1" r="15.15"/>
  <circle class="st1" cx="443.2" cy="395.91" r="15.16"/>
  <path class="st2" d="M652.24,436.57c-34.54,36.79-88.84,46.63-133.52,23.78,4.11-9.93,6.86-19.3,6.89-29.44l.16-49.94c.09-28.98-12.26-55.25-36.13-72.92,9.65-6.94,20.07-10.24,31.6-10.24h102.83c20.04,0,37.39,9.76,47.77,26.61,8.35,13.56,10.73,28.68,9.46,44.65-2.02,25.39-11.37,48.64-29.07,67.49Z"/>
  <path class="st2" d="M712.53,449.28c-14.14-8.08-19.75-24.5-22.73-39.17,12.5-32.61,13.69-65.31-3.6-96.85,10.81,4.44,17.21,11.82,25.37,18.54,20.91,21.31,37.12,46.84,46.14,75.4,3.12,9.88,2.8,19.88-1.62,28.77-8.13,16.37-27.39,22.55-43.56,13.31Z"/>
  <path class="st2" d="M619.7,279.72c-32.72.68-63.57,1.22-95.47-.19-35.58-1.57-60.07-34.15-59.88-68.32l.32-54.29c.18-30.98,26.63-59.59,58.73-61.02s65.46-1.24,98.76-.27c33.4.97,60.07,29.88,60.31,62.07l.39,52.47c.27,35.7-25.67,68.78-63.17,69.56ZM621.83,260.49c22.85-.66,41.56-21.78,41.65-43l.25-56.41c.1-23.46-18.37-46.46-42.59-46.58l-96.79-.47c-22.74,3.08-41.05,21.74-41.1,45.01l-.1,55.27c-.04,22.19,17.73,45.09,41.1,46.05,32.77,1.35,64.03,1.09,97.59.12Z"/>
  <path class="st2" d="M473.34,298.88c-8.51-2.74-16.23-5.68-25.14-6.12l-45.63-.14c-10.86-12.34-20.08-25.01-25.8-40.13-6.61-17.46.39-36.84,18.11-43.59,17.32-6.6,35.91,3.17,41.93,20.52,3.74,15.63,10.18,29.55,18.68,43.24l17.83,26.22Z"/>
  <path class="st1" d="M621.83,260.49c-33.56.97-64.82,1.23-97.59-.12-23.36-.96-41.14-23.87-41.1-46.05l.1-55.27c.04-23.27,18.35-41.93,41.1-45.01l96.79.47c24.22.12,42.7,23.12,42.59,46.58l-.25,56.41c-.09,21.22-18.8,42.34-41.65,43ZM550.79,180.97c0-12.61-10.22-22.83-22.83-22.83s-22.83,10.22-22.83,22.83,10.22,22.83,22.83,22.83,22.83-10.22,22.83-22.83ZM641.28,181c0-12.67-10.27-22.93-22.93-22.93s-22.93,10.27-22.93,22.93,10.27,22.93,22.93,22.93,22.93-10.27,22.93-22.93ZM589.25,217.54c-1.71,8.17-9.05,13.21-16.46,13.17-7.8-.04-14.82-4.77-16.48-12.84-.56-2.73-2.24-3.98-4.59-3.58-2.02.35-2.95,2.27-2.58,4.79,1.65,11.31,11.5,19.07,23.02,19.23,12.07.17,22.46-7.7,24.55-19.43.49-2.77-.8-4.73-3.12-4.94-2.04-.19-3.74.74-4.34,3.6Z"/>
  <path class="st5" d="M641.28,181c0,12.67-10.27,22.93-22.93,22.93s-22.93-10.27-22.93-22.93,10.27-22.93,22.93-22.93,22.93,10.27,22.93,22.93ZM633.69,180.96c0-8.43-6.84-15.27-15.27-15.27s-15.27,6.84-15.27,15.27,6.84,15.27,15.27,15.27,15.27-6.84,15.27-15.27Z"/>
  <path class="st5" d="M550.79,180.97c0,12.61-10.22,22.83-22.83,22.83s-22.83-10.22-22.83-22.83,10.22-22.83,22.83-22.83,22.83,10.22,22.83,22.83ZM543.25,180.99c0-8.39-6.8-15.2-15.2-15.2s-15.2,6.8-15.2,15.2,6.8,15.2,15.2,15.2,15.2-6.8,15.2-15.2Z"/>
  <path class="st5" d="M589.25,217.54c.6-2.85,2.3-3.78,4.34-3.6,2.32.21,3.61,2.16,3.12,4.94-2.09,11.73-12.48,19.6-24.55,19.43-11.51-.16-21.37-7.91-23.02-19.23-.37-2.51.56-4.44,2.58-4.79,2.35-.4,4.03.85,4.59,3.58,1.66,8.06,8.68,12.8,16.48,12.84,7.42.03,14.75-5.01,16.46-13.17Z"/>
  <circle class="st1" cx="618.42" cy="180.96" r="15.27"/>
  <circle class="st1" cx="528.06" cy="180.99" r="15.2"/>
</svg>